<?xml version="1.0" encoding="utf-8"?>
<!-- Generator: Adobe Illustrator 15.1.0, SVG Export Plug-In . SVG Version: 6.00 Build 0)  -->
<!DOCTYPE svg PUBLIC "-//W3C//DTD SVG 1.1//EN" "http://www.w3.org/Graphics/SVG/1.1/DTD/svg11.dtd">
<svg version="1.1"
	 id="svg4948" inkscape:version="0.48.4 r9939" sodipodi:docname="New document 29" xmlns:dc="http://purl.org/dc/elements/1.1/" xmlns:cc="http://creativecommons.org/ns#" xmlns:rdf="http://www.w3.org/1999/02/22-rdf-syntax-ns#" xmlns:svg="http://www.w3.org/2000/svg" xmlns:sodipodi="http://sodipodi.sourceforge.net/DTD/sodipodi-0.dtd" xmlns:inkscape="http://www.inkscape.org/namespaces/inkscape"
	 xmlns="http://www.w3.org/2000/svg" xmlns:xlink="http://www.w3.org/1999/xlink" x="0px" y="0px" width="66.096px"
	 height="58.233px" viewBox="57.998 81.5 66.096 58.233" enable-background="new 57.998 81.5 66.096 58.233" xml:space="preserve">
<sodipodi:namedview  inkscape:pageopacity="0.0" inkscape:pageshadow="2" inkscape:document-units="px" inkscape:current-layer="layer1" inkscape:window-width="1280" inkscape:window-height="750" inkscape:window-x="-8" inkscape:window-y="-8" inkscape:zoom="0.37802734" inkscape:cx="713.58469" inkscape:cy="357.40672" pagecolor="#ffffff" showgrid="false" bordercolor="#666666" borderopacity="1.0" inkscape:window-maximized="1" id="base">
	</sodipodi:namedview>
<g id="layer1" inkscape:groupmode="layer" inkscape:label="Layer 1">
	<path id="rect3027-1" inkscape:connector-curvature="0" fill="#FFFFFF" d="M78.295,81.5c-0.364,0.003-0.741,0.068-1.085,0.211
		c-1.092,0.454-1.492,1.506-0.888,2.326l2.466,3.341c-5.94,2.757-9.877,7.468-9.877,12.844c0,0.022,0,0.057,0,0.09
		c0,0.012,0,0.019,0,0.032c0,0.018,0,0.043,0,0.047v0.83c-1.141-0.985-2.818-1.607-4.692-1.607c-3.433,0-6.221,2.091-6.221,4.667
		v14.377c0,2.576,2.788,4.667,6.221,4.667c1.874,0,3.551-0.622,4.692-1.607v2.014c0,2.715,2.961,4.937,6.58,4.937h1.67v6.396
		c0,2.576,2.787,4.667,6.22,4.667s6.221-2.091,6.221-4.667v-6.396h2.889v6.396c0,2.576,2.788,4.667,6.22,4.667
		c3.434,0,6.221-2.091,6.221-4.667v-6.396h1.67c3.619,0,6.58-2.222,6.58-4.937v-2.014c1.141,0.985,2.818,1.607,4.692,1.607
		c3.433,0,6.221-2.091,6.221-4.667v-14.377c0-2.576-2.788-4.667-6.221-4.667c-1.874,0-3.551,0.622-4.692,1.607v-0.814v-0.016
		c0-0.025,0-0.051,0-0.047c0-0.051,0-0.091,0-0.122c0-5.375-3.945-10.081-9.884-12.839l2.473-3.346
		c0.605-0.819,0.204-1.872-0.888-2.326c-0.344-0.143-0.721-0.208-1.085-0.211c-0.806-0.006-1.598,0.313-2.015,0.877l-2.585,3.504
		c-2.528-0.7-5.279-1.083-8.151-1.083c-2.869,0-5.625,0.379-8.15,1.078l-2.586-3.499C79.893,81.813,79.101,81.494,78.295,81.5z"/>
	<path id="rect3981-7" inkscape:connector-curvature="0" fill="#A4C639" d="M64.219,100.83c-2.562,0-4.6,1.529-4.6,3.452v14.377
		c0,1.922,2.039,3.452,4.6,3.452c2.562,0,4.6-1.529,4.6-3.452v-14.377C68.82,102.359,66.781,100.83,64.219,100.83z M117.873,100.83
		c-2.562,0-4.601,1.529-4.601,3.452v14.377c0,1.922,2.039,3.452,4.601,3.452s4.6-1.529,4.6-3.452v-14.377
		C122.473,102.359,120.435,100.83,117.873,100.83z"/>
	<path id="c-4-0" inkscape:connector-curvature="0" fill="#A4C639" d="M83.382,117.237c-2.562,0-4.6,1.53-4.6,3.452v14.377
		c0,1.922,2.038,3.452,4.6,3.452s4.6-1.53,4.6-3.452v-14.377C87.982,118.767,85.944,117.237,83.382,117.237z M98.711,117.237
		c-2.562,0-4.6,1.53-4.6,3.452v14.377c0,1.922,2.039,3.452,4.6,3.452c2.562,0,4.601-1.53,4.601-3.452v-14.377
		C103.311,118.767,101.273,117.237,98.711,117.237z"/>
	<path id="ellipse3033" inkscape:connector-curvature="0" fill="#A4C639" d="M78.309,82.715c-0.108,0.001-0.21,0.022-0.31,0.063
		c-0.328,0.136-0.436,0.419-0.254,0.666l3.241,4.393c-6.235,2.434-10.446,7.06-10.455,12.369h41.03
		c-0.009-5.309-4.22-9.935-10.455-12.369l3.241-4.393c0.183-0.247,0.074-0.53-0.254-0.666c-0.1-0.042-0.201-0.063-0.31-0.063
		c-0.233-0.001-0.454,0.086-0.578,0.254l-3.283,4.44c-2.686-0.894-5.698-1.396-8.877-1.396c-3.178,0-6.191,0.502-8.876,1.396
		l-3.283-4.44C78.763,82.801,78.542,82.714,78.309,82.715L78.309,82.715z M70.531,101.422v22.312c0,2.062,2.212,3.721,4.959,3.721
		h31.11c2.748,0,4.96-1.66,4.96-3.721v-22.312H70.531L70.531,101.422z"/>
	<path id="circle3041" inkscape:connector-curvature="0" fill="#FFFFFF" d="M81.578,92.002c-0.937,0-1.712,0.582-1.712,1.285
		c0,0.703,0.775,1.284,1.712,1.284s1.712-0.582,1.712-1.284C83.29,92.584,82.514,92.002,81.578,92.002z M100.514,92.002
		c-0.937,0-1.712,0.582-1.712,1.285c0,0.703,0.775,1.284,1.712,1.284s1.712-0.582,1.712-1.284
		C102.226,92.584,101.451,92.002,100.514,92.002z"/>
</g>
</svg>
